HIERARCHY
ROOT Hips
{
	OFFSET -14.64140 90.27770 -84.91600
	CHANNELS 6 Xposition Yposition Zposition Zrotation Xrotation Yrotation
	JOINT Spine
	{
		OFFSET 0.00000 13.20850 -1.60436
		CHANNELS 3 Zrotation Xrotation Yrotation
		JOINT Spine1
		{
			OFFSET 0.00000 8.61716 0.00000
			CHANNELS 3 Zrotation Xrotation Yrotation
			JOINT Spine2
			{
				OFFSET 0.00000 8.61717 0.00000
				CHANNELS 3 Zrotation Xrotation Yrotation
				JOINT Spine3
				{
					OFFSET 0.00000 8.61717 0.00000
					CHANNELS 3 Zrotation Xrotation Yrotation
					JOINT Neck
					{
						OFFSET 0.00000 11.07920 1.10792
						CHANNELS 3 Zrotation Xrotation Yrotation
						JOINT Neck1
						{
							OFFSET 0.00000 7.08032 0.00000
							CHANNELS 3 Zrotation Xrotation Yrotation
							JOINT Head
							{
								OFFSET 0.00000 7.08031 0.00000
								CHANNELS 3 Zrotation Xrotation Yrotation
								End site
								{
									OFFSET 0.00000 0.00000 0.00000
								}
							}
						}
					}
					JOINT RightShoulder
					{
						OFFSET -0.01000 7.91373 5.19711
						CHANNELS 3 Zrotation Xrotation Yrotation
						JOINT RightArm
						{
							OFFSET -18.41580 0.00000 0.00000
							CHANNELS 3 Zrotation Xrotation Yrotation
							JOINT RightForeArm
							{
								OFFSET -29.11090 0.00000 0.00000
								CHANNELS 3 Zrotation Xrotation Yrotation
								JOINT RightHand
								{
									OFFSET -24.65040 0.00000 0.00000
									CHANNELS 3 Zrotation Xrotation Yrotation
									JOINT RightHandThumb1
									{
										OFFSET -5.35114 -0.85590 3.97906
										CHANNELS 3 Zrotation Xrotation Yrotation
										JOINT RightHandThumb2
										{
											OFFSET -4.52789 0.00000 0.00000
											CHANNELS 3 Zrotation Xrotation Yrotation
											JOINT RightHandThumb3
											{
												OFFSET -2.46976 0.00000 0.00000
												CHANNELS 3 Zrotation Xrotation Yrotation
												End site
												{
													OFFSET 0.00000 0.00000 0.00000
												}
											}
										}
									}
									JOINT RightHandIndex1
									{
										OFFSET -14.26970 0.00000 2.88139
										CHANNELS 3 Zrotation Xrotation Yrotation
										JOINT RightHandIndex2
										{
											OFFSET -5.48836 0.00000 0.00000
											CHANNELS 3 Zrotation Xrotation Yrotation
											JOINT RightHandIndex3
											{
												OFFSET -3.01859 0.00000 0.00000
												CHANNELS 3 Zrotation Xrotation Yrotation
												End site
												{
													OFFSET 0.00000 0.00000 0.00000
												}
											}
										}
									}
									JOINT RightHandMiddle1
									{
										OFFSET -14.26970 0.00000 -0.09147
										CHANNELS 3 Zrotation Xrotation Yrotation
										JOINT RightHandMiddle2
										{
											OFFSET -6.17441 0.00000 0.00000
											CHANNELS 3 Zrotation Xrotation Yrotation
											JOINT RightHandMiddle3
											{
												OFFSET -3.56743 0.00000 0.00000
												CHANNELS 3 Zrotation Xrotation Yrotation
												End site
												{
													OFFSET 0.00000 0.00000 0.00000
												}
											}
										}
									}
									JOINT RightHandRing1
									{
										OFFSET -12.69180 0.00000 -3.06433
										CHANNELS 3 Zrotation Xrotation Yrotation
										JOINT RightHandRing2
										{
											OFFSET -5.62556 0.00000 0.00000
											CHANNELS 3 Zrotation Xrotation Yrotation
											JOINT RightHandRing3
											{
												OFFSET -3.56744 0.00000 0.00000
												CHANNELS 3 Zrotation Xrotation Yrotation
												End site
												{
													OFFSET 0.00000 0.00000 0.00000
												}
											}
										}
									}
									JOINT RightHandPinky1
									{
										OFFSET -11.11390 0.00000 -6.03719
										CHANNELS 3 Zrotation Xrotation Yrotation
										JOINT RightHandPinky2
										{
											OFFSET -4.52789 0.00000 0.00000
											CHANNELS 3 Zrotation Xrotation Yrotation
											JOINT RightHandPinky3
											{
												OFFSET -2.46976 0.00000 0.00000
												CHANNELS 3 Zrotation Xrotation Yrotation
												End site
												{
													OFFSET 0.00000 0.00000 0.00000
												}
											}
										}
									}
								}
							}
						}
					}
					JOINT LeftShoulder
					{
						OFFSET 0.01000 7.91373 5.19711
						CHANNELS 3 Zrotation Xrotation Yrotation
						JOINT LeftArm
						{
							OFFSET 18.41580 0.00000 0.00000
							CHANNELS 3 Zrotation Xrotation Yrotation
							JOINT LeftForeArm
							{
								OFFSET 29.11090 0.00000 0.00000
								CHANNELS 3 Zrotation Xrotation Yrotation
								JOINT LeftHand
								{
									OFFSET 24.65040 0.00000 0.00000
									CHANNELS 3 Zrotation Xrotation Yrotation
									JOINT LeftHandThumb1
									{
										OFFSET 5.35114 -0.85590 3.97906
										CHANNELS 3 Zrotation Xrotation Yrotation
										JOINT LeftHandThumb2
										{
											OFFSET 4.52789 0.00000 0.00000
											CHANNELS 3 Zrotation Xrotation Yrotation
											JOINT LeftHandThumb3
											{
												OFFSET 2.46977 0.00000 0.00000
												CHANNELS 3 Zrotation Xrotation Yrotation
												End site
												{
													OFFSET 0.00000 0.00000 0.00000
												}
											}
										}
									}
									JOINT LeftHandIndex1
									{
										OFFSET 14.26970 0.00000 2.88139
										CHANNELS 3 Zrotation Xrotation Yrotation
										JOINT LeftHandIndex2
										{
											OFFSET 5.48836 0.00000 0.00000
											CHANNELS 3 Zrotation Xrotation Yrotation
											JOINT LeftHandIndex3
											{
												OFFSET 3.01859 0.00000 0.00000
												CHANNELS 3 Zrotation Xrotation Yrotation
												End site
												{
													OFFSET 0.00000 0.00000 0.00000
												}
											}
										}
									}
									JOINT LeftHandMiddle1
									{
										OFFSET 14.26970 0.00000 -0.09147
										CHANNELS 3 Zrotation Xrotation Yrotation
										JOINT LeftHandMiddle2
										{
											OFFSET 6.17440 0.00000 0.00000
											CHANNELS 3 Zrotation Xrotation Yrotation
											JOINT LeftHandMiddle3
											{
												OFFSET 3.56744 0.00000 0.00000
												CHANNELS 3 Zrotation Xrotation Yrotation
												End site
												{
													OFFSET 0.00000 0.00000 0.00000
												}
											}
										}
									}
									JOINT LeftHandRing1
									{
										OFFSET 12.69180 0.00000 -3.06433
										CHANNELS 3 Zrotation Xrotation Yrotation
										JOINT LeftHandRing2
										{
											OFFSET 5.62556 0.00000 0.00000
											CHANNELS 3 Zrotation Xrotation Yrotation
											JOINT LeftHandRing3
											{
												OFFSET 3.56744 0.00000 0.00000
												CHANNELS 3 Zrotation Xrotation Yrotation
												End site
												{
													OFFSET 0.00000 0.00000 0.00000
												}
											}
										}
									}
									JOINT LeftHandPinky1
									{
										OFFSET 11.11390 0.00000 -6.03719
										CHANNELS 3 Zrotation Xrotation Yrotation
										JOINT LeftHandPinky2
										{
											OFFSET 4.52789 0.00000 0.00000
											CHANNELS 3 Zrotation Xrotation Yrotation
											JOINT LeftHandPinky3
											{
												OFFSET 2.46976 0.00000 0.00000
												CHANNELS 3 Zrotation Xrotation Yrotation
												End site
												{
													OFFSET 0.00000 0.00000 0.00000
												}
											}
										}
									}
								}
							}
						}
					}
					JOINT pCube4
					{
						OFFSET 0.00000 10.91090 1.10792
						CHANNELS 3 Zrotation Xrotation Yrotation
						End site
						{
							OFFSET 0.00000 0.00000 0.00000
						}
					}
				}
			}
		}
	}
	JOINT RightUpLeg
	{
		OFFSET -9.98441 0.00000 0.00000
		CHANNELS 3 Zrotation Xrotation Yrotation
		JOINT RightLeg
		{
			OFFSET 0.00000 -42.11790 0.00000
			CHANNELS 3 Zrotation Xrotation Yrotation
			JOINT RightFoot
			{
				OFFSET 0.00000 -45.00020 -0.00001
				CHANNELS 3 Zrotation Xrotation Yrotation
				JOINT RightForeFoot
				{
					OFFSET 0.00000 -3.74820 0.00000
					CHANNELS 3 Zrotation Xrotation Yrotation
					JOINT RightToeBase
					{
						OFFSET 0.00000 0.06325 14.43120
						CHANNELS 3 Zrotation Xrotation Yrotation
						End site
						{
							OFFSET 0.00000 0.00000 0.00000
						}
					}
				}
			}
		}
	}
	JOINT LeftUpLeg
	{
		OFFSET 9.98441 0.00000 0.00000
		CHANNELS 3 Zrotation Xrotation Yrotation
		JOINT LeftLeg
		{
			OFFSET 0.00000 -42.11800 0.00000
			CHANNELS 3 Zrotation Xrotation Yrotation
			JOINT LeftFoot
			{
				OFFSET 0.00000 -45.00070 0.00000
				CHANNELS 3 Zrotation Xrotation Yrotation
				JOINT LeftForeFoot
				{
					OFFSET 0.00000 -3.74824 0.00000
					CHANNELS 3 Zrotation Xrotation Yrotation
					JOINT LeftToeBase
					{
						OFFSET 0.00000 0.06325 14.43110
						CHANNELS 3 Zrotation Xrotation Yrotation
						End site
						{
							OFFSET 0.00000 0.00000 0.00000
						}
					}
				}
			}
		}
	}
}
MOTION
Frames: 4
Frame Time: 0.050000
0.0007097911779824589 -0.024562719520993363 0.03662872105061073 -0.007532571153408413 -0.023029444781545196 -0.0464914364478684 -1.8931861718227252 1.2450060259275537 -1.0599842862599627 -0.9072634780283777 3.6711386720514896 0.3689770368999847 -1.158355825934661 -1.4261347540391824 -1.096559547415126 0.5859487769590532 0.3742346813202049 -0.8165195679143474 0.5825203371068909 11.28548188982588 -2.1072203532332177 0.40194542101333797 -1.0021880261659877 -6.150428244700079 1.1296740525803266 -16.481710177574534 -0.5391040507264053 -3.0177523510886832 1.2722383499526528 -15.329713176245024 73.14926203515655 19.498551943020576 0.8650389770355387 1.3497263350345965 5.481757813640569 44.82389907468936 21.283233530915464 -0.08404611714556358 -4.309655109541487 4.547210708179336 -0.14070076312071786 -1.545756830325092 -0.015372886547141076 -0.04008480814674935 -56.2772542096035 -0.024282962585003075 0.002078928768794466 -56.18509021865781 -38.765235143791635 -0.03382784565770126 0.011761055294609676 -0.04767937911585572 -0.024279210159626148 0.009396654266636143 0.01917723592969045 0.016469197710691327 0.03472956023719253 -36.68886048397115 0.02973344809023101 -0.012515086287728665 -0.020082076498588976 -0.00445064091341091 -0.034626364372027874 0.02612337797220604 -0.04934169773352131 -0.023046967458959178 -19.72523638886982 0.01725708448304502 -0.01936652529355296 -0.022552177969232493 0.029987116351009663 -0.005741218328506861 0.009730191139641632 0.02042818988746743 -0.0005441557508291696 24.061176167695212 -0.019581758946715544 -0.042222720939072866 28.87971759660197 0.008682791003074397 -0.03476952629493587 28.850580866709915 -0.012547583860341698 0.017488644065073312 2.985145999747988 0.9323920259173677 13.055828654238717 -69.35221359398578 28.62547472083045 -5.118570116533929 4.122359021676108 -7.9969599441471795 -49.11445397593523 -12.042065453850698 2.4037446867765406 -0.13883904659125526 -0.4872120177392334 0.05827845305094653 -8.143419131236385 0.021173070835382512 0.02406183859079457 44.54806920865257 -0.0031611320681854908 -0.013440195680230124 44.52614833543311 12.475573720973724 -0.036376535484217494 -0.026172640796601372 0.028942351041179554 0.01965148581931011 -0.0026957330455713844 0.007607821246447011 -0.0005819147994567119 0.04386124448149004 11.075309313288557 0.04724833116290078 0.016977695069739254 -0.04314785279228363 -0.04109240299217807 -0.03697480900277728 -0.014559596026726344 -0.04534905215556136 -0.03645732804670925 4.785527661114761 0.007305618854168748 0.04271642261761012 -0.03973163632480629 0.04782780676954015 0.024664125669302955 -0.0149204451110016 -0.02161639064281912 -0.02477094747977758 -5.600241700567107 0.04259309944887045 -0.0071327353440724444 -6.752720525169659 -0.010757760561371222 -0.017267684845465994 -6.7027856683390485 -0.0266466668565148 -0.004900004257442499 0.020089723308218628 -0.024848736225311183 -0.010966813927156045 8.041236562152536 3.444088270569164 -19.243809763545965 0.01210207959222487 10.358904762893182 0.03527083807289011 -5.579368541990937 -15.6453228610013 3.2270564180740617 -0.0041461976950124034 -0.011888722042554496 0.027989612695167993 0.03430625840245016 4.710770303613548 -0.04062209037157328 12.46322626756564 -8.235213899777676 6.8829906837620864 -0.04691648674355583 46.374247303218574 -0.008067025409686904 -4.295953763960553 -14.74416671101591 -3.8620902591343724 0.03797497715582977 0.01354219809625874 0.016649099377191143 -0.023840734989931407 -10.788069954952638 0.047498217354027844 
-0.002243721407544691 0.03296277267632124 -0.027777323075668936 0.031042404545313002 0.04150254451280699 -0.01821542883936414 -1.9768077506233088 1.2781582032481857 -1.0142597591904654 -0.8898095410624962 3.691243709040677 0.39092320043915874 -1.1198667606868302 -1.4860710266376347 -1.026770505772319 0.5016696255225948 0.31943902792644047 -0.7943336978592489 0.41795551754629084 11.175417809585326 -1.8478771605513504 0.3499039008939327 -1.0635009258984944 -5.348743091134695 1.0940554549624206 -16.579465392239307 -0.5209883161414652 -2.984107053276934 1.2745994808192378 -15.229332313654066 73.36498713792093 19.287262207904472 0.6454666082457254 1.7762771994607836 5.696635754673688 44.63631904451988 21.57845515216464 -0.09959096481447927 -4.258633557025706 4.517194379107615 -0.1644736113810415 -1.5573188244462017 -0.0032770824326930543 0.04600857670277235 -56.283585353223245 -0.0021821148871207586 -0.016796479075299988 -56.19960229873112 -38.7846459523004 0.0014103261580629312 -0.021534055009260096 -0.04302112066741272 0.03784164826209943 0.049236727670564355 -0.006877395273981214 0.03288474888506041 0.028258392106913274 -36.697301018101285 -0.03086521747617828 0.011285158584231608 0.013057410733907742 0.005992721656692615 0.003710717076600749 0.0005451834664573928 -0.04269309230866784 0.03527380845531278 -19.783533701446114 0.00016144690724705855 -0.027843542302821763 -0.043543893656552916 0.00824985598378845 -0.012052940339196502 0.025551456569316965 0.015336361221506766 -0.03410743076133306 24.08231497676809 -0.01625516694710624 0.013552109279420837 28.869985215995058 0.038916989667818404 -0.04972892321771833 28.88896472537311 0.022914775413693054 0.028487626173628638 3.2492780107355133 1.0394638932039506 13.025993881046467 -69.33858915507388 28.61337392191785 -5.48886168804703 3.321588629094506 -7.495391220564253 -49.05002416178881 -12.481794355240947 2.3825939521856943 -0.15236923445980868 -0.5192471150523069 0.06872322554780959 -8.132009380948553 0.013959569725977181 -0.027677273698800253 44.572922943731754 0.012499130480135725 -0.025719222951629202 44.61252478586548 12.501229218966374 0.016661493078945017 -0.005092209641061093 0.038237418784462636 0.031957696590832675 -0.04396303893159155 -0.030659492224358466 -0.006944763847166064 -0.045248449338507565 11.117214816443308 0.023988322798139616 0.025951289370947782 -0.015505514457155218 -0.004268276929106895 -0.018020287578100893 -0.012288224987678948 -0.02135934662506642 -0.0005907622552515897 4.7412811025004435 -0.03159448645278634 -0.013112640693475936 0.03165898368672823 -0.012059592724233887 0.028816798477656995 0.025685489078811727 0.014781708496221362 -0.016716576581249268 -5.599811923898604 0.03290903425127618 -0.0016406709444492043 -6.716596466668618 -0.024689916916720137 -0.034168943479125274 -6.7114491097946205 0.0329093249677893 0.028865185774958772 -0.010734138432705665 0.04962466752526785 -0.046183850079248315 8.061614550979211 3.5116545013619596 -19.198144601605954 -0.04009341295653621 10.375411601228127 0.019309039974355423 -5.575710252897821 -15.703528076179936 3.2066692292173924 -0.01884305009172402 0.028742359274705243 0.02452423628818362 -0.00752306318178948 4.723147749860036 0.023651381011655825 12.431202330567116 -8.25750882417423 6.846495237853302 0.008917461035614967 46.42021156127684 -0.010079096849593093 -4.365239081461535 -14.769663862033001 -3.7881533788420154 -0.03284579816137446 -0.04382189361778364 -0.04731112633605631 0.03646425536791285 -10.701316060105453 0.018053344573629452 
0.000962152700626554 0.001979573771203592 0.006232257868994707 -0.019835422821732958 -0.02209231356892362 -0.033165041611664774 -1.9232561679827551 1.43176639722845 -0.9883657913677523 -0.8619992693465804 3.694379261569469 0.34894236045731164 -1.108068567487247 -1.3964031457246495 -0.9325688009137846 0.3544034846100251 0.32351824750199465 -0.8022188395117704 0.354530921925856 11.091434391223935 -1.604661802688745 0.34482614658464483 -1.1127736699639899 -4.880729828267007 1.0094216015086734 -16.6197165534316 -0.38723202054618727 -2.874787466179642 1.2380241253564799 -15.06397857568372 73.42974325861167 18.825144571682074 0.6843601172418746 1.7549890376679926 5.871026421392385 44.812598261727324 21.69231965640095 -0.1019045500774378 -4.14540428148478 4.489643534466794 -0.09412220666645388 -1.6094476445170753 -0.03606129094365207 -0.008560857859141804 -56.239394700685004 -0.009868427821933779 -0.029796677558072904 -56.25728837111412 -38.76031612945351 0.002994046509955317 -0.014826482005222038 0.01477178180539415 0.002007719094937746 0.025464606587936287 -0.04991156213256438 0.017868639358329386 -0.006361362592463886 -36.66654811272789 -0.021123057338417836 -0.023062296060259665 -0.0069274861671247785 -0.019625749181878392 -0.006801558158535713 0.03982820195357347 0.0016890867660276424 -0.04996215805575341 -19.722227838513383 -0.04476840776618319 -0.018380081106807673 -0.0011629250071787892 0.022988597601953674 -0.027306008522744087 -0.006169265433516818 -0.0295094449273333 0.03935819229733478 24.054600411781582 0.026524212779686012 0.010312442957139817 28.87709256946412 -0.029936625467814962 -0.017701296518290183 28.879034238891194 -0.03070719693420704 0.006357343120276105 3.190960508331918 0.9867092993212283 13.003356604997581 -69.18940040108619 28.408257400820826 -5.995865953868641 3.064810474354956 -7.012202115541271 -49.4713742873357 -12.785919432342926 2.3810078746528527 -0.19188137220748616 -0.5089717828451554 0.07850946957346386 -8.173447503275199 -0.032448386181861036 0.04936120306134278 44.5403120005939 0.012332415776457873 0.034936368439670115 44.51815944871708 12.494696843188656 -0.0054844860858186345 0.009130389004209911 -0.01618329992285968 -0.00033670654025157474 0.023556519544405165 -0.022112393519590542 0.027692300937142277 -0.02177103563418874 11.099330213360354 -0.0034823004737824376 -0.043230036964665174 -0.04278591163948382 -0.046646934171276175 0.01946728133715034 -0.01492533223908518 0.0401705446383556 -0.02033551355671207 4.738104259506122 0.031503278543619354 -0.017588778774682644 0.03447318812829356 -0.00011074277340434724 -0.036221397207692164 0.0012440128609267373 0.016365550345746875 -0.042277103688029415 -5.598713304550957 -0.02133537261466778 -0.001100609552418619 -6.702846084008248 -0.0449992267422373 0.027180904842640078 -6.740656154868555 0.030229421168199325 -0.04199840205261453 0.0014391377315617058 0.04160780619186701 0.014618434118215203 8.056325592561043 3.4583253591629086 -19.230612548375017 0.023949530634684763 10.37923454801208 -0.012031365168338526 -5.590629371597209 -15.676675165998075 3.199312737067543 0.01586407450496788 -0.02598112751122522 -0.015687368137098284 -0.024456676201104317 4.673370493001225 0.032413283955144145 12.476828825440407 -8.274186982579147 6.839528106640613 -0.0444776192141837 46.42315938888956 0.010896558540856947 -4.368081205377545 -14.762042868921114 -3.858408729122072 0.028889193801994718 -0.03172895199472383 0.04526980485653793 -0.02081543037697179 -10.72975320915231 0.02339401695885744 
0.011342623614772236 0.010307361791127234 0.048469464580021576 0.03825975463264765 0.04203495106001245 0.04300226901606555 -1.9054635392732462 1.7163512012949778 -0.9851560360240132 -0.9110554604867912 3.7379535862235294 0.40158072557923713 -1.1557586278452376 -1.3385477038068034 -0.8442943815539832 0.3171014981659134 0.2751490921584217 -0.8054035072092824 0.2516232014890188 10.984872389094335 -1.3856237388879813 0.3171419470639119 -1.1310482421382935 -4.5312322630165704 0.8795180765771676 -16.667143955325493 -0.39855468566327107 -2.6308546224375204 1.2431482833533878 -14.932412863279577 73.37375313731067 18.119506788097098 1.06808104898628 1.6342090867376815 6.160807291151256 45.404043366910834 21.62566399963831 -0.10700138210887189 -4.116880481991648 4.5502492578884715 -0.08723260287260629 -1.6283360782085727 -0.020693005054666404 -0.002384327195466122 -56.212716618177865 0.030933282283286165 -0.004936141814531764 -56.2727657440609 -38.76919098585735 0.01901969770691481 -0.03383286394062346 0.008058110624937744 0.0012626422624145764 -0.028516352474826357 0.0336455379289969 -0.03776099163724824 0.014141619930323557 -36.73079024317902 -0.04199055057401302 0.027967760075195438 -0.04722546723527648 -0.021475490226008188 -0.042698872945782805 0.040764535886624556 -0.01005715617683389 0.01878961814897454 -19.71296432076345 0.030101753140835852 0.007162911998059195 0.019082509838591197 0.027787589164474425 0.0009358949502787482 0.006204644562509841 -0.023744126031041608 0.00197158967218508 24.069119619078005 -0.012164603219439199 -0.0033325175011848364 28.887546592727904 0.025753230304007276 -0.04333982475261482 28.870056244610982 0.014264489055548134 0.005354730269819436 3.148924337556567 1.019668980516574 12.941429647053107 -68.99456721910033 27.963137727641133 -6.419023619870779 3.1869885416979633 -6.5943136456680485 -50.15111708095569 -12.90280283633956 2.3152076584773633 -0.22725173387632278 -0.4766485944746708 0.07363397611646086 -8.172976546205446 -0.007305051108971066 0.03516886197732994 44.56599774258899 0.03856559657934397 -0.01031553066162664 44.58096396973392 12.441216295426512 0.011288271573034565 -0.029434615320935224 0.00035781503660686244 0.04235459799930943 -0.016758848637669875 0.0257345604746127 -0.024084211850655825 0.004914709840159899 11.064301920687031 -0.031697026332956096 -0.02461704748605442 0.03035437607063012 -0.01989494250546798 -0.04662355990591523 -0.013830532648391868 -0.0001365865260597087 0.020872209628842526 4.804112051954536 0.02553183723543266 0.049725626957894196 -0.0024193112180318256 -0.011881577408002731 -0.04624043025666158 0.008964882366199675 -0.022633130815523334 -0.03013069163616797 -5.577681046825171 -0.016191838416282214 -0.013520569345173037 -6.731491879836627 0.006691890168353243 -0.001284280757063875 -6.688825749467368 -0.018144669572242655 0.016839027347922517 -0.009230546569338745 0.00893244914844913 0.0025690994053805135 8.064736498383494 3.470073575487847 -19.177397446455974 -0.02317209931823731 10.399799326702706 0.014283468831286 -5.6353063576131195 -15.62991643190866 3.1934099963877305 0.025701015307880697 0.03940974892934956 0.015501052865264436 0.020920744027842615 4.6838150463031525 -0.01803369332610349 12.430356110675675 -8.204895252651902 6.874017704894708 -0.003797007175823812 46.392332959103896 -0.02803716014915785 -4.284066566620211 -14.739273331649176 -3.825411216727892 0.009648536559634062 -0.020375155117672877 -0.04540299092724032 0.029503425790828677 -10.748712809495963 0.016396905495224528 
